<svg width="101" height="101" xmlns="http://www.w3.org/2000/svg">
  <defs>
    <pattern id="smallGrid" width="20" height="20" patternUnits="userSpaceOnUse">
      <path d="M 20 0 L 0 0 0 20" fill="none" stroke="gray" stroke-width="1"/>
    </pattern>
  </defs>
  <rect width="100%" height="100%" fill="url(#smallGrid)" />
  <!--
  <polyline
     points="10,10 30,40 50,10 70,40 90,30"
     fill="lightgray"
     stroke="black"
     stroke-width="2"
     fill-rule="nonzero"
     />
  <polyline
     points="10,60 30,90 50,60 70,90 90,80"
     fill="lightgray"
     stroke="black"
     stroke-width="2"
     fill-rule="evenodd"
     />
  -->
  <g transform="translate(0, 20)">
    <!-- nonzero esetén a lyuk is ki lesz töltve -->
    <path d="M 5,5 L 40,5 L 40,40 L 5,40 Z M 15,15 L 30,15 L 30,30 L 15,30 Z"
          fill="lightgray" stroke="black" stroke-width="1" fill-rule="nonzero"/>
    <text x="22.5" y="50" font-size="12" text-anchor="middle">nonzero</text>
  </g>
  
  <g transform="translate(50, 20)">
    <path d="M 5,5 L 40,5 L 40,40 L 5,40 Z M 15,15 L 30,15 L 30,30 L 15,30 Z"
          fill="lightgray" stroke="black" stroke-width="1" fill-rule="evenodd"/>
    <text x="22.5" y="50" font-size="12" text-anchor="middle">evenodd</text>
  </g>
</svg>