<?xml version="1.0" encoding="UTF-8" standalone="no"?>
<svg
   width="101"
   height="101"
   version="1.1"
   id="svg5"
   sodipodi:docname="stroke-linecap.svg"
   inkscape:version="1.3.2 (091e20e, 2023-11-25, custom)"
   xmlns:inkscape="http://www.inkscape.org/namespaces/inkscape"
   xmlns:sodipodi="http://sodipodi.sourceforge.net/DTD/sodipodi-0.dtd"
   xmlns="http://www.w3.org/2000/svg"
   xmlns:svg="http://www.w3.org/2000/svg">
  <sodipodi:namedview
     id="namedview5"
     pagecolor="#505050"
     bordercolor="#eeeeee"
     borderopacity="1"
     inkscape:showpageshadow="0"
     inkscape:pageopacity="0"
     inkscape:pagecheckerboard="0"
     inkscape:deskcolor="#505050"
     inkscape:zoom="8.1287129"
     inkscape:cx="50.5"
     inkscape:cy="50.5"
     inkscape:window-width="1920"
     inkscape:window-height="1017"
     inkscape:window-x="1912"
     inkscape:window-y="-8"
     inkscape:window-maximized="1"
     inkscape:current-layer="svg5" />
  <defs
     id="defs1">
    <pattern
       id="smallGrid"
       width="20"
       height="20"
       patternUnits="userSpaceOnUse">
      <path
         d="M 20 0 L 0 0 0 20"
         fill="none"
         stroke="gray"
         stroke-width="1"
         id="path1" />
    </pattern>
  </defs>
  <rect
     width="100%"
     height="100%"
     fill="url(#smallGrid)"
     id="rect1" />
  <line
     x1="15"
     y1="15"
     x2="85"
     y2="15"
     stroke="black"
     stroke-width="25"
     stroke-linecap="butt"
     id="line1" />
  <line
     x1="15"
     y1="50"
     x2="85"
     y2="50"
     stroke="black"
     stroke-width="25"
     stroke-linecap="round"
     id="line2" />
  <line
     x1="15"
     y1="85"
     x2="85"
     y2="85"
     stroke="black"
     stroke-width="25"
     stroke-linecap="square"
     id="line3" />
  <!-- Szövegek: font-size és jobb pozíciók, fekete szín -->
  <path
     d="m 42.773437,15.570313 q 0,1.093749 -0.3125,1.968749 -0.304687,0.875 -0.828125,1.46875 -0.554687,0.617188 -1.21875,0.929688 -0.664062,0.304687 -1.460937,0.304687 -0.742188,0 -1.296875,-0.179687 -0.554688,-0.171875 -1.09375,-0.46875 L 36.46875,20 h -1.375 V 7.84375 h 1.46875 v 4.34375 q 0.617187,-0.507812 1.3125,-0.828125 0.695312,-0.328125 1.5625,-0.328125 1.546875,0 2.4375,1.1875 0.898437,1.1875 0.898437,3.351563 z m -1.515625,0.03906 q 0,-1.5625 -0.515625,-2.367187 -0.515625,-0.8125 -1.664062,-0.8125 -0.640625,0 -1.296875,0.28125 -0.65625,0.273437 -1.21875,0.710937 v 5 q 0.625,0.28125 1.070312,0.390625 0.453125,0.109375 1.023438,0.109375 1.21875,0 1.90625,-0.796875 0.695312,-0.804688 0.695312,-2.515625 z M 52.296875,20 h -1.46875 v -0.96875 q -0.742188,0.585937 -1.421875,0.898437 -0.679688,0.3125 -1.5,0.3125 -1.375,0 -2.140625,-0.835937 Q 45,18.5625 45,16.9375 v -5.664062 h 1.46875 v 4.968749 q 0,0.664063 0.0625,1.140625 0.0625,0.46875 0.265625,0.804688 0.210937,0.34375 0.546875,0.5 0.335937,0.15625 0.976562,0.15625 0.570313,0 1.242188,-0.296875 0.679687,-0.296875 1.265625,-0.757813 v -6.515624 h 1.46875 z m 7.421875,-0.07813 q -0.414063,0.109375 -0.90625,0.179687 -0.484375,0.07031 -0.867188,0.07031 -1.335937,0 -2.03125,-0.71875 -0.695312,-0.71875 -0.695312,-2.304688 V 12.507813 H 54.226562 V 11.273438 H 55.21875 V 8.765625 h 1.46875 v 2.507813 h 3.03125 v 1.234375 H 56.6875 v 3.976562 q 0,0.6875 0.03125,1.078125 0.03125,0.382812 0.21875,0.71875 0.171875,0.3125 0.46875,0.460937 0.304687,0.140625 0.921875,0.140625 0.359375,0 0.75,-0.101562 0.390625,-0.109375 0.5625,-0.179688 h 0.07813 z m 6.304687,0 q -0.414062,0.109375 -0.90625,0.179687 -0.484375,0.07031 -0.867187,0.07031 -1.335938,0 -2.03125,-0.71875 -0.695313,-0.71875 -0.695313,-2.304688 V 12.507813 H 60.53125 v -1.234375 h 0.992187 V 8.765625 h 1.46875 v 2.507813 h 3.03125 v 1.234375 h -3.03125 v 3.976562 q 0,0.6875 0.03125,1.078125 0.03125,0.382812 0.21875,0.71875 0.171875,0.3125 0.46875,0.460937 0.304688,0.140625 0.921875,0.140625 0.359375,0 0.75,-0.101562 0.390625,-0.109375 0.5625,-0.179688 h 0.07813 z"
     id="text3"
     style="font-size:16px;text-anchor:middle;fill:#ffffff"
     aria-label="butt" />
  <path
     d="m 33.511719,47.875 h -0.07813 q -0.328125,-0.07813 -0.640625,-0.109375 -0.304688,-0.03906 -0.726563,-0.03906 -0.679687,0 -1.3125,0.304688 -0.632812,0.296875 -1.21875,0.773437 V 55 h -1.46875 v -8.726563 h 1.46875 V 47.5625 q 0.875,-0.703125 1.539063,-0.992188 0.671875,-0.296875 1.367187,-0.296875 0.382813,0 0.554688,0.02344 0.171875,0.01563 0.515625,0.07031 z m 8.820312,2.765625 q 0,2.132812 -1.09375,3.367187 -1.09375,1.234375 -2.929687,1.234375 -1.851563,0 -2.945313,-1.234375 -1.085937,-1.234375 -1.085937,-3.367187 0,-2.132813 1.085937,-3.367188 1.09375,-1.242187 2.945313,-1.242187 1.835937,0 2.929687,1.242187 1.09375,1.234375 1.09375,3.367188 z m -1.515625,0 q 0,-1.695313 -0.664062,-2.515625 -0.664063,-0.828125 -1.84375,-0.828125 -1.195313,0 -1.859375,0.828125 -0.65625,0.820312 -0.65625,2.515625 0,1.640625 0.664062,2.492187 0.664063,0.84375 1.851563,0.84375 1.171875,0 1.835937,-0.835937 0.671875,-0.84375 0.671875,-2.5 z M 51.839844,55 h -1.46875 v -0.96875 q -0.742188,0.585937 -1.421875,0.898437 -0.679688,0.3125 -1.5,0.3125 -1.375,0 -2.140625,-0.835937 -0.765625,-0.84375 -0.765625,-2.46875 v -5.664063 h 1.46875 v 4.96875 q 0,0.664063 0.0625,1.140625 0.0625,0.46875 0.265625,0.804688 0.210937,0.34375 0.546875,0.5 0.335937,0.15625 0.976562,0.15625 0.570313,0 1.242188,-0.296875 0.679687,-0.296875 1.265625,-0.757813 v -6.515625 h 1.46875 z m 10.1875,0 h -1.46875 v -4.96875 q 0,-0.601563 -0.07031,-1.125 -0.07031,-0.53125 -0.257812,-0.828125 -0.195313,-0.328125 -0.5625,-0.484375 -0.367188,-0.164063 -0.953125,-0.164063 -0.601563,0 -1.257813,0.296875 -0.65625,0.296875 -1.257812,0.757813 V 55 h -1.46875 v -8.726563 h 1.46875 v 0.96875 q 0.6875,-0.570312 1.421875,-0.890625 0.734375,-0.320312 1.507812,-0.320312 1.414063,0 2.15625,0.851562 0.742188,0.851563 0.742188,2.453125 z m 9.90625,0 h -1.46875 v -0.914063 q -0.632813,0.546875 -1.320313,0.851563 -0.6875,0.304687 -1.492187,0.304687 -1.5625,0 -2.484375,-1.203125 -0.914063,-1.203125 -0.914063,-3.335937 0,-1.109375 0.3125,-1.976563 0.320313,-0.867187 0.859375,-1.476562 0.53125,-0.59375 1.234375,-0.90625 0.710938,-0.3125 1.46875,-0.3125 0.6875,0 1.21875,0.148437 0.53125,0.140625 1.117188,0.445313 v -3.78125 h 1.46875 z m -1.46875,-2.148438 V 47.84375 q -0.59375,-0.265625 -1.0625,-0.367188 Q 68.933594,47.375 68.378906,47.375 q -1.234375,0 -1.921875,0.859375 -0.6875,0.859375 -0.6875,2.4375 0,1.554687 0.53125,2.367187 0.53125,0.804688 1.703125,0.804688 0.625,0 1.265625,-0.273438 0.640625,-0.28125 1.195313,-0.71875 z"
     id="text4"
     style="font-size:16px;text-anchor:middle;fill:#ffffff"
     aria-label="round" />
  <path
     d="m 30.480469,87.484375 q 0,1.195312 -0.992188,1.960937 -0.984375,0.765625 -2.695312,0.765625 -0.96875,0 -1.78125,-0.226562 Q 24.207031,89.75 23.660156,89.476562 v -1.648437 h 0.07813 q 0.695313,0.523437 1.546875,0.835937 0.851563,0.304688 1.632813,0.304688 0.96875,0 1.515625,-0.3125 0.546875,-0.3125 0.546875,-0.984375 0,-0.515625 -0.296875,-0.78125 Q 28.386719,86.625 27.542969,86.4375 q -0.3125,-0.07031 -0.820313,-0.164063 -0.5,-0.09375 -0.914062,-0.203125 -1.148438,-0.304687 -1.632813,-0.890625 -0.476562,-0.59375 -0.476562,-1.453125 0,-0.539062 0.21875,-1.015625 0.226562,-0.476562 0.679687,-0.851562 0.4375,-0.367188 1.109375,-0.578125 0.679688,-0.21875 1.515625,-0.21875 0.78125,0 1.578125,0.195312 0.804688,0.1875 1.335938,0.460938 v 1.570312 h -0.07813 q -0.5625,-0.414062 -1.367188,-0.695312 -0.804687,-0.289063 -1.578125,-0.289063 -0.804687,0 -1.359375,0.3125 -0.554687,0.304688 -0.554687,0.914063 0,0.539062 0.335937,0.8125 0.328125,0.273437 1.0625,0.445312 0.40625,0.09375 0.90625,0.1875 0.507813,0.09375 0.84375,0.171875 1.023438,0.234375 1.578125,0.804688 0.554688,0.578125 0.554688,1.53125 z m 9.179687,5.734375 h -1.46875 v -4.203125 q -0.679687,0.585937 -1.351562,0.875 -0.671875,0.28125 -1.453125,0.28125 -1.554688,0 -2.484375,-1.195313 -0.921875,-1.203125 -0.921875,-3.3125 0,-1.125 0.320312,-1.984375 0.328125,-0.867187 0.859375,-1.453125 0.515625,-0.570312 1.210938,-0.882812 0.695312,-0.3125 1.46875,-0.3125 0.703125,0 1.242187,0.15625 0.546875,0.15625 1.109375,0.460937 l 0.09375,-0.375 h 1.375 z m -1.46875,-5.4375 v -4.9375 q -0.609375,-0.273438 -1.078125,-0.382813 -0.46875,-0.109375 -1.015625,-0.109375 -1.273437,0 -1.9375,0.867188 -0.664062,0.859375 -0.664062,2.375 0,1.53125 0.53125,2.359375 0.539062,0.820312 1.6875,0.820312 0.640625,0 1.28125,-0.273437 0.640625,-0.28125 1.195312,-0.71875 z M 49.785156,90 h -1.46875 v -0.96875 q -0.742187,0.585937 -1.421875,0.898437 -0.679687,0.3125 -1.5,0.3125 -1.375,0 -2.140625,-0.835937 -0.765625,-0.84375 -0.765625,-2.46875 v -5.664063 h 1.46875 v 4.96875 q 0,0.664063 0.0625,1.140625 0.0625,0.46875 0.265625,0.804688 0.210938,0.34375 0.546875,0.5 0.335938,0.15625 0.976563,0.15625 0.570312,0 1.242187,-0.296875 0.679688,-0.296875 1.265625,-0.757813 v -6.515625 h 1.46875 z m 9.671875,0 h -1.460937 v -0.929688 q -0.195313,0.132813 -0.53125,0.375 -0.328125,0.234375 -0.640625,0.375 -0.367188,0.179688 -0.84375,0.296875 -0.476563,0.125 -1.117188,0.125 -1.179687,0 -2,-0.78125 -0.820312,-0.78125 -0.820312,-1.992187 0,-0.992188 0.421875,-1.601563 0.429687,-0.617187 1.21875,-0.96875 0.796875,-0.351562 1.914062,-0.476562 1.117188,-0.125 2.398438,-0.1875 v -0.226563 q 0,-0.5 -0.179688,-0.828125 -0.171875,-0.328125 -0.5,-0.515625 -0.3125,-0.179687 -0.75,-0.242187 -0.4375,-0.0625 -0.914062,-0.0625 -0.578125,0 -1.289063,0.15625 -0.710937,0.148437 -1.46875,0.4375 h -0.07813 v -1.492188 q 0.429688,-0.117187 1.242188,-0.257812 0.8125,-0.140625 1.601562,-0.140625 0.921875,0 1.601563,0.15625 0.6875,0.148437 1.1875,0.515625 0.492187,0.359375 0.75,0.929687 0.257812,0.570313 0.257812,1.414063 z m -1.460937,-2.148438 v -2.429687 q -0.671875,0.03906 -1.585938,0.117187 -0.90625,0.07813 -1.4375,0.226563 -0.632812,0.179687 -1.023437,0.5625 -0.390625,0.375 -0.390625,1.039062 0,0.75 0.453125,1.132813 0.453125,0.375 1.382812,0.375 0.773438,0 1.414063,-0.296875 0.640625,-0.304688 1.1875,-0.726563 z M 67.730469,82.875 h -0.07813 q -0.328125,-0.07813 -0.640625,-0.109375 -0.304688,-0.03906 -0.726563,-0.03906 -0.679687,0 -1.3125,0.304688 -0.632812,0.296875 -1.21875,0.773437 V 90 h -1.46875 v -8.726563 h 1.46875 V 82.5625 q 0.875,-0.703125 1.539063,-0.992188 0.671875,-0.296875 1.367187,-0.296875 0.382813,0 0.554688,0.02344 0.171875,0.01563 0.515625,0.07031 z m 8.6875,2.914062 h -6.429688 q 0,0.804688 0.242188,1.40625 0.242187,0.59375 0.664062,0.976563 0.40625,0.375 0.960938,0.5625 0.5625,0.1875 1.234375,0.1875 0.890625,0 1.789062,-0.351563 0.90625,-0.359375 1.289063,-0.703125 h 0.07813 v 1.601563 q -0.742188,0.3125 -1.515625,0.523437 -0.773438,0.210938 -1.625,0.210938 -2.171875,0 -3.390625,-1.171875 -1.21875,-1.179688 -1.21875,-3.34375 0,-2.140625 1.164062,-3.398438 1.171875,-1.257812 3.078125,-1.257812 1.765625,0 2.71875,1.03125 0.960938,1.03125 0.960938,2.929687 z m -1.429688,-1.125 q -0.0078,-1.15625 -0.585937,-1.789062 -0.570313,-0.632813 -1.742188,-0.632813 -1.179687,0 -1.882812,0.695313 -0.695313,0.695312 -0.789063,1.726562 z"
     id="text5"
     style="font-size:16px;text-anchor:middle;fill:#ffffff"
     aria-label="square" />
</svg>
