<?xml version="1.0" encoding="UTF-8" standalone="no"?>
<svg
   width="101"
   height="101"
   version="1.1"
   id="svg5"
   sodipodi:docname="stroke-linejoin.svg"
   inkscape:version="1.3.2 (091e20e, 2023-11-25, custom)"
   xmlns:inkscape="http://www.inkscape.org/namespaces/inkscape"
   xmlns:sodipodi="http://sodipodi.sourceforge.net/DTD/sodipodi-0.dtd"
   xmlns="http://www.w3.org/2000/svg"
   xmlns:svg="http://www.w3.org/2000/svg">
  <sodipodi:namedview
     id="namedview5"
     pagecolor="#505050"
     bordercolor="#eeeeee"
     borderopacity="1"
     inkscape:showpageshadow="0"
     inkscape:pageopacity="0"
     inkscape:pagecheckerboard="0"
     inkscape:deskcolor="#505050"
     showgrid="false"
     inkscape:zoom="5.747868"
     inkscape:cx="40.971713"
     inkscape:cy="42.537511"
     inkscape:window-width="1920"
     inkscape:window-height="1017"
     inkscape:window-x="1912"
     inkscape:window-y="-8"
     inkscape:window-maximized="1"
     inkscape:current-layer="svg5" />
  <defs
     id="defs1">
    <pattern
       id="smallGrid"
       width="20"
       height="20"
       patternUnits="userSpaceOnUse">
      <path
         d="M 20 0 L 0 0 0 20"
         fill="none"
         stroke="gray"
         stroke-width="1"
         id="path1" />
    </pattern>
  </defs>
  <rect
     width="100%"
     height="100%"
     fill="url(#smallGrid)"
     id="rect1" />
  <polyline
     points="10,10 30,30 50,10"
     fill="none"
     stroke="black"
     stroke-width="15"
     stroke-linejoin="miter"
     id="polyline1" />
  <polyline
     points="10,40 30,60 50,40"
     fill="none"
     stroke="black"
     stroke-width="15"
     stroke-linejoin="round"
     id="polyline2" />
  <polyline
     points="10,70 30,90 50,70"
     fill="none"
     stroke="black"
     stroke-width="15"
     stroke-linejoin="bevel"
     id="polyline3" />
  <!-- 
    <polyline points="25,0 50,15 40,0" fill="none" stroke="black" stroke-width="8" stroke-linejoin="round"/>
  
  
    <polyline points="0,0 50,15 40,0" fill="none" stroke="black" stroke-width="8" stroke-linejoin="bevel"/>
  -->
  <!-- Szövegek: font-size és jobb pozíciók, fekete szín -->
  <path
     d="m 70.331505,24.87698 h -1.46875 v -4.96875 q 0,-0.5625 -0.05469,-1.085938 -0.04687,-0.523437 -0.210937,-0.835937 -0.179688,-0.335938 -0.515625,-0.507813 -0.335938,-0.171875 -0.96875,-0.171875 -0.617188,0 -1.234375,0.3125 -0.617188,0.304688 -1.234375,0.78125 0.02344,0.179688 0.03906,0.421875 0.01563,0.234375 0.01563,0.46875 v 5.585938 h -1.46875 v -4.96875 q 0,-0.578125 -0.05469,-1.09375 -0.04687,-0.523438 -0.210938,-0.835938 -0.179687,-0.335937 -0.515625,-0.5 -0.335937,-0.171875 -0.96875,-0.171875 -0.601562,0 -1.210937,0.296875 -0.601563,0.296875 -1.203125,0.757813 v 6.515625 h -1.46875 v -8.726563 h 1.46875 v 0.96875 q 0.6875,-0.570312 1.367187,-0.890625 0.6875,-0.320312 1.460938,-0.320312 0.890625,0 1.507812,0.375 0.625,0.375 0.929688,1.039062 0.890625,-0.75 1.625,-1.078125 0.734375,-0.335937 1.570312,-0.335937 1.4375,0 2.117188,0.875 0.6875,0.867187 0.6875,2.429687 z m 4.40625,-10.1875 h -1.65625 v -1.523438 h 1.65625 z m -0.09375,10.1875 h -1.46875 v -8.726563 h 1.46875 z m 7.4375,-0.07813 q -0.414063,0.109375 -0.90625,0.179687 -0.484375,0.07031 -0.867188,0.07031 -1.335937,0 -2.03125,-0.71875 -0.695312,-0.71875 -0.695312,-2.304688 v -4.640625 h -0.992188 v -1.234375 h 0.992188 v -2.507812 h 1.46875 v 2.507812 h 3.03125 v 1.234375 h -3.03125 v 3.976563 q 0,0.6875 0.03125,1.078125 0.03125,0.382812 0.21875,0.71875 0.171875,0.3125 0.46875,0.460937 0.304687,0.140625 0.921875,0.140625 0.359375,0 0.75,-0.101562 0.390625,-0.109375 0.5625,-0.179688 h 0.07813 z m 9.078125,-4.132813 h -6.429688 q 0,0.804688 0.242188,1.40625 0.242187,0.59375 0.664062,0.976563 0.40625,0.375 0.960938,0.5625 0.5625,0.1875 1.234375,0.1875 0.890625,0 1.789062,-0.351563 0.90625,-0.359375 1.289063,-0.703125 h 0.07813 v 1.601563 q -0.742188,0.3125 -1.515625,0.523437 -0.773438,0.210938 -1.625,0.210938 -2.171875,0 -3.390625,-1.171875 -1.21875,-1.179688 -1.21875,-3.34375 0,-2.140625 1.164062,-3.398438 1.171875,-1.257812 3.078125,-1.257812 1.765625,0 2.71875,1.03125 0.960938,1.03125 0.960938,2.929687 z m -1.429688,-1.125 q -0.0078,-1.15625 -0.585937,-1.789062 -0.570313,-0.632813 -1.742188,-0.632813 -1.179687,0 -1.882812,0.695313 -0.695313,0.695312 -0.789063,1.726562 z m 9.101563,-1.789062 h -0.07813 q -0.328125,-0.07813 -0.640625,-0.109375 -0.304688,-0.03906 -0.726563,-0.03906 -0.679687,0 -1.3125,0.304688 -0.632812,0.296875 -1.21875,0.773437 v 6.195313 h -1.46875 v -8.726563 h 1.46875 v 1.289063 q 0.875,-0.703125 1.539063,-0.992188 0.671875,-0.296875 1.367187,-0.296875 0.382813,0 0.554688,0.02344 0.171875,0.01563 0.515625,0.07031 z"
     id="text3"
     style="font-size:16px;text-anchor:middle"
     aria-label="miter" />
  <path
     d="m 61.648111,50.240506 h -0.07425 q -0.311846,-0.07425 -0.608842,-0.103949 -0.289571,-0.03713 -0.690516,-0.03713 -0.645966,0 -1.247383,0.289572 -0.601418,0.282146 -1.158285,0.735065 v 5.887947 h -1.395882 v -8.293615 h 1.395882 v 1.225108 q 0.831589,-0.668241 1.462705,-0.942962 0.638542,-0.282146 1.299358,-0.282146 0.363821,0 0.527168,0.02227 0.163348,0.01485 0.490044,0.06682 z m 8.382715,2.628415 q 0,2.026998 -1.039487,3.200133 -1.039486,1.173134 -2.784338,1.173134 -1.759702,0 -2.799188,-1.173134 -1.032061,-1.173135 -1.032061,-3.200133 0,-2.026998 1.032061,-3.200133 1.039486,-1.180559 2.799188,-1.180559 1.744852,0 2.784338,1.180559 1.039487,1.173135 1.039487,3.200133 z m -1.440431,0 q 0,-1.611204 -0.631117,-2.390819 -0.631117,-0.787039 -1.752277,-0.787039 -1.13601,0 -1.767127,0.787039 -0.623691,0.779615 -0.623691,2.390819 0,1.559229 0.631116,2.368544 0.631117,0.801889 1.759702,0.801889 1.113735,0 1.744852,-0.794464 0.638542,-0.80189 0.638542,-2.375969 z m 10.476537,4.143095 H 77.67105 v -0.920688 q -0.705365,0.556868 -1.351332,0.853864 -0.645966,0.296996 -1.425581,0.296996 -1.306783,0 -2.034423,-0.794464 -0.727641,-0.80189 -0.727641,-2.346269 v -5.383054 h 1.395882 v 4.722237 q 0,0.631117 0.0594,1.084036 0.0594,0.445494 0.252447,0.764765 0.200472,0.326696 0.519743,0.475194 0.319271,0.148498 0.928113,0.148498 0.542017,0 1.180559,-0.282147 0.645967,-0.282146 1.202834,-0.720215 v -6.192368 h 1.395882 z m 9.682071,0 h -1.395881 v -4.722237 q 0,-0.571718 -0.06682,-1.069186 -0.06682,-0.504894 -0.245021,-0.78704 -0.185623,-0.311846 -0.534593,-0.460344 -0.348971,-0.155923 -0.905838,-0.155923 -0.571718,0 -1.19541,0.282146 -0.623691,0.282147 -1.195409,0.720216 v 6.192368 h -1.395882 v -8.293615 h 1.395882 v 0.920687 q 0.653391,-0.542017 1.351332,-0.846438 0.697941,-0.304421 1.433006,-0.304421 1.343908,0 2.049273,0.809314 0.705366,0.809314 0.705366,2.331419 z m 9.414776,0 h -1.395882 v -0.868713 q -0.601417,0.519743 -1.254808,0.809314 -0.653392,0.289571 -1.418156,0.289571 -1.484981,0 -2.361119,-1.143435 Q 90.8651,54.955318 90.8651,52.92832 q 0,-1.054336 0.296996,-1.8785 0.304421,-0.824164 0.816739,-1.403307 0.504894,-0.564292 1.173135,-0.861288 0.675666,-0.296996 1.395882,-0.296996 0.653391,0 1.158284,0.141073 0.504894,0.133648 1.061761,0.423219 v -3.593652 h 1.395882 z m -1.395882,-2.041848 v -4.759362 q -0.564292,-0.252447 -1.009786,-0.34897 -0.445495,-0.09652 -0.972663,-0.09652 -1.173134,0 -1.826526,0.816739 -0.653391,0.816739 -0.653391,2.316569 0,1.477556 0.504893,2.249746 0.504894,0.764765 1.618629,0.764765 0.593992,0 1.202834,-0.259872 0.608842,-0.267296 1.13601,-0.683091 z"
     id="text4"
     style="font-size:15.2062px;text-anchor:middle;stroke-width:0.950389"
     aria-label="round" />
  <path
     d="m 59.773105,85.352607 q 0,1.014334 -0.841964,1.664039 -0.835335,0.649705 -2.287226,0.649705 -0.822075,0 -1.511557,-0.19226 -0.682853,-0.198889 -1.146928,-0.430926 v -1.398854 h 0.0663 q 0.590038,0.444186 1.312669,0.709371 0.722631,0.258556 1.385594,0.258556 0.822076,0 1.28615,-0.265185 0.464075,-0.265186 0.464075,-0.835335 0,-0.437556 -0.251926,-0.662964 -0.251926,-0.225408 -0.967927,-0.384519 -0.265186,-0.05967 -0.696113,-0.139222 -0.424296,-0.07956 -0.775667,-0.172371 -0.974557,-0.258556 -1.385595,-0.755779 -0.404408,-0.503852 -0.404408,-1.233113 0,-0.457445 0.18563,-0.861853 0.19226,-0.404408 0.576779,-0.72263 0.371259,-0.311593 0.941408,-0.490593 0.576779,-0.18563 1.28615,-0.18563 0.662964,0 1.339187,0.165741 0.682853,0.159111 1.133669,0.391148 v 1.332558 h -0.0663 Q 58.93777,81.44112 58.254917,81.202453 57.572065,80.957156 56.91573,80.957156 q -0.682852,0 -1.153557,0.265186 -0.470704,0.258556 -0.470704,0.775668 0,0.457445 0.285074,0.689482 0.278445,0.232037 0.901631,0.377889 0.344741,0.07956 0.769038,0.159112 0.430927,0.07955 0.716001,0.145852 0.868483,0.198889 1.339187,0.682853 0.470705,0.490593 0.470705,1.299409 z m 7.789825,4.866155 h -1.246372 v -3.566746 q -0.576779,0.497223 -1.146927,0.74252 -0.570149,0.238667 -1.233113,0.238667 -1.319298,0 -2.108225,-1.014335 -0.782298,-1.020965 -0.782298,-2.810967 0,-0.954668 0.271815,-1.683928 0.278445,-0.73589 0.729261,-1.233113 0.437556,-0.483964 1.027594,-0.749149 0.590038,-0.265186 1.246372,-0.265186 0.596667,0 1.054112,0.132593 0.464075,0.132593 0.941409,0.391149 l 0.07956,-0.318223 h 1.166816 z m -1.246372,-4.614229 v -4.189932 q -0.517112,-0.232037 -0.91489,-0.324852 -0.397778,-0.09282 -0.861853,-0.09282 -1.080631,0 -1.644151,0.73589 -0.563519,0.72926 -0.563519,2.01541 0,1.299409 0.450816,2.002151 0.457445,0.696112 1.432002,0.696112 0.54363,0 1.08726,-0.232037 0.543631,-0.238667 1.014335,-0.609927 z m 9.838384,1.882817 H 74.90857 v -0.822075 q -0.629816,0.497223 -1.206595,0.762409 -0.576778,0.265185 -1.27289,0.265185 -1.166817,0 -1.816521,-0.709371 -0.649705,-0.716001 -0.649705,-2.094966 v -4.806488 h 1.246372 v 4.21645 q 0,0.563519 0.05304,0.967927 0.05304,0.397779 0.225408,0.682853 0.179,0.291704 0.464075,0.424297 0.285074,0.132593 0.828705,0.132593 0.483963,0 1.054112,-0.251926 0.576779,-0.251927 1.074002,-0.643075 v -5.529119 h 1.246372 z m 8.207493,0 h -1.239742 v -0.788927 q -0.165741,0.112704 -0.450816,0.318223 -0.278445,0.198889 -0.54363,0.318223 -0.311593,0.152481 -0.716001,0.251926 -0.404408,0.106074 -0.948039,0.106074 -1.001075,0 -1.697187,-0.662964 -0.696112,-0.662964 -0.696112,-1.690558 0,-0.841964 0.358,-1.359075 0.36463,-0.523742 1.034224,-0.822076 0.676223,-0.298333 1.624261,-0.404408 0.948039,-0.106074 2.0353,-0.159111 v -0.19226 q 0,-0.424296 -0.152482,-0.702741 -0.145852,-0.278445 -0.424297,-0.437556 -0.265186,-0.152482 -0.636445,-0.205519 -0.37126,-0.05304 -0.775668,-0.05304 -0.490593,0 -1.09389,0.132592 -0.603298,0.125964 -1.246373,0.37126 h -0.0663 v -1.266261 q 0.36463,-0.09944 1.054113,-0.218778 0.689482,-0.119333 1.359076,-0.119333 0.782297,0 1.359076,0.132592 0.583408,0.125964 1.007705,0.437557 0.417667,0.304963 0.636445,0.788927 0.218778,0.483963 0.218778,1.199964 z M 83.122693,85.6642 v -2.061818 q -0.570149,0.03315 -1.345817,0.09944 -0.769038,0.0663 -1.219854,0.192259 -0.537,0.152482 -0.868482,0.477334 -0.331482,0.318223 -0.331482,0.881742 0,0.636446 0.384519,0.961298 0.384519,0.318222 1.173446,0.318222 0.656334,0 1.199964,-0.251926 0.543631,-0.258556 1.007706,-0.616556 z m 8.260531,-4.22308 h -0.0663 q -0.278445,-0.0663 -0.543631,-0.09282 -0.258556,-0.03315 -0.616556,-0.03315 -0.576779,0 -1.11378,0.258556 -0.537,0.251926 -1.034223,0.656334 v 5.257303 h -1.246372 v -7.405306 h 1.246372 v 1.09389 q 0.742519,-0.596667 1.306039,-0.841964 0.570149,-0.251926 1.160186,-0.251926 0.324853,0 0.470705,0.01989 0.145852,0.01326 0.437556,0.05967 z m 7.372158,2.472855 h -5.456193 q 0,0.682853 0.205519,1.193335 0.205519,0.503853 0.563519,0.828705 0.344741,0.318223 0.815446,0.477334 0.477334,0.159111 1.047483,0.159111 0.755779,0 1.518187,-0.298333 0.769038,-0.304964 1.09389,-0.596668 h 0.0663 v 1.359076 q -0.629816,0.265186 -1.28615,0.444186 -0.656334,0.179 -1.378965,0.179 -1.84304,0 -2.877263,-0.994446 -1.034224,-1.001075 -1.034224,-2.837485 0,-1.816521 0.987816,-2.883893 0.994446,-1.067372 2.612078,-1.067372 1.498298,0 2.307114,0.875112 0.815446,0.875113 0.815446,2.486115 z m -1.213224,-0.954668 q -0.0066,-0.981186 -0.497223,-1.518187 -0.483964,-0.537001 -1.478409,-0.537001 -1.001076,0 -1.597743,0.590038 -0.590038,0.590038 -0.669594,1.46515 z"
     id="text5"
     style="font-size:13.5775px;text-anchor:middle;stroke-width:0.84859"
     aria-label="square" />
</svg>
